<svg width="30" height="30" viewBox="0 0 30 30" fill="none" xmlns="http://www.w3.org/2000/svg">
<rect width="30" height="30" rx="4" fill="white"/>
<circle cx="16.6923" cy="22.6922" r="1.30769" fill="#032A69"/>
<circle cx="23.2308" cy="22.6922" r="1.30769" fill="#032A69"/>
<path d="M10.3748 7.57322H12.0852C12.648 7.57098 13.1279 7.98984 13.2137 8.55857L14.5677 17.3004C14.6955 18.148 15.4109 18.7726 16.2501 18.7692H24.6193C24.774 18.7692 24.8997 18.6408 24.8997 18.4826C24.8997 18.3243 24.774 18.196 24.6193 18.196H16.2501C15.6872 18.1983 15.2073 17.7792 15.1216 17.2107L14.8914 15.7244H23.4629C24.1887 15.7241 24.8346 15.2542 25.0724 14.5535L26.6627 9.86235C26.6926 9.7747 26.679 9.67778 26.6264 9.60213C26.5737 9.52665 26.4885 9.4817 26.3978 9.4817H13.9244L13.7676 8.46884C13.6398 7.6212 12.9244 6.99665 12.0852 7.00001H10.3748C10.2199 7.00001 10.0944 7.12844 10.0944 7.28661C10.0944 7.44495 10.2199 7.57322 10.3748 7.57322V7.57322ZM26.0038 10.0551L24.5426 14.3658C24.383 14.8358 23.9497 15.151 23.4629 15.1512H14.8025L14.0131 10.0549L26.0038 10.0551Z" fill="white" stroke="#032A69"/>
<line x1="1" y1="10.9851" x2="8.12012" y2="10.9851" stroke="#FC9231"/>
<line x1="6.75085" y1="18.8311" x2="10.3109" y2="18.8311" stroke="#FC9231"/>
<line x1="4.83386" y1="14.908" x2="9.21547" y2="14.908" stroke="#FC9231"/>
</svg>
