<svg width="155" height="59" viewBox="0 0 155 59" fill="none" xmlns="http://www.w3.org/2000/svg">
<g filter="url(#filter0_d_294_99)">
<path d="M32.1384 29.7814C32.1384 28.3527 30.9803 27.1946 29.5519 27.1946C28.1232 27.1946 26.9651 28.3527 26.9651 29.7811C26.9651 31.2098 28.1232 32.3679 29.5519 32.3679C30.9795 32.3664 32.1369 31.2093 32.1384 29.7814ZM27.8826 29.7814C27.8826 28.8593 28.6298 28.112 29.5519 28.112C30.4737 28.112 31.2209 28.8593 31.2209 29.7811C31.2209 30.7032 30.4737 31.4504 29.5519 31.4504C28.6303 31.4494 27.8836 30.7027 27.8826 29.7814Z" fill="#093E94"/>
</g>
<g filter="url(#filter1_d_294_99)">
<path d="M39.1299 32.3679C40.5585 32.3681 41.7166 31.21 41.7166 29.7814C41.7169 28.3527 40.5588 27.1946 39.1301 27.1946C37.7014 27.1946 36.5433 28.3527 36.5433 29.7814C36.5451 31.209 37.7019 32.3661 39.1299 32.3679ZM39.1299 28.112C40.0517 28.112 40.7992 28.8593 40.7992 29.7811C40.7994 30.7029 40.0519 31.4504 39.1301 31.4504C38.2083 31.4504 37.4608 30.7032 37.4608 29.7814C37.4618 28.8601 38.2086 28.1133 39.1299 28.112Z" fill="#093E94"/>
</g>
<path d="M17.5242 2.0715H20.7214C21.7735 2.06732 22.6706 2.8503 22.8309 3.9134L25.3619 20.2543C25.6008 21.8388 26.9381 23.0063 28.5068 23H44.1512C44.4404 23 44.6753 22.7599 44.6753 22.4642C44.6753 22.1683 44.4404 21.9285 44.1512 21.9285H28.5068C27.4547 21.9327 26.5576 21.1494 26.3973 20.0866L25.967 17.3084H41.9896C43.3462 17.3078 44.5536 16.4294 44.9982 15.1197L47.9709 6.35053C48.0267 6.1867 48.0013 6.00553 47.903 5.86412C47.8044 5.72301 47.6453 5.639 47.4757 5.639L24.1594 5.639L23.8663 3.74568C23.6274 2.16119 22.2901 0.993747 20.7214 1.00003L17.5242 1.00003C17.2346 1.00003 17 1.24009 17 1.53576C17 1.83174 17.2346 2.0715 17.5242 2.0715ZM46.7392 6.71078L44.0078 14.7687C43.7095 15.6473 42.8996 16.2366 41.9896 16.2369H25.8009L24.3253 6.71048L46.7392 6.71078Z" fill="white" stroke="#02368A"/>
<line x1="8.74228e-08" y1="8.38354" x2="13.3095" y2="8.38355" stroke="#2874F0" stroke-width="2"/>
<line x1="10.7499" y1="18.3835" x2="17.4046" y2="18.3835" stroke="#2874F0" stroke-width="2"/>
<line x1="7.16663" y1="13.3835" x2="15.3571" y2="13.3835" stroke="#2874F0" stroke-width="2"/>
<path d="M25 44.2812C25 45.2083 24.8229 46.0781 24.4688 46.8906C24.1146 47.7031 23.6302 48.4167 23.0156 49.0312C22.4115 49.6354 21.7031 50.1146 20.8906 50.4688C20.0781 50.8229 19.2083 51 18.2812 51H7.07812V28.5938H18.2812C19.2083 28.5938 20.0781 28.7708 20.8906 29.125C21.7031 29.4792 22.4115 29.9635 23.0156 30.5781C23.6302 31.1823 24.1146 31.8906 24.4688 32.7031C24.8229 33.5156 25 34.3854 25 35.3125C25 35.7292 24.9427 36.1562 24.8281 36.5938C24.7135 37.0312 24.5521 37.4531 24.3438 37.8594C24.1354 38.2656 23.8854 38.6354 23.5938 38.9688C23.3021 39.3021 22.9792 39.5781 22.625 39.7969C22.9896 39.9948 23.3177 40.2656 23.6094 40.6094C23.901 40.9427 24.151 41.3125 24.3594 41.7188C24.5677 42.125 24.724 42.5521 24.8281 43C24.9427 43.4375 25 43.8646 25 44.2812ZM11.5625 46.5156H18.2812C18.5938 46.5156 18.8854 46.4583 19.1562 46.3438C19.4271 46.2292 19.6615 46.0729 19.8594 45.875C20.0677 45.6667 20.2292 45.4271 20.3438 45.1562C20.4583 44.8854 20.5156 44.5938 20.5156 44.2812C20.5156 43.9688 20.4583 43.6771 20.3438 43.4062C20.2292 43.1354 20.0677 42.901 19.8594 42.7031C19.6615 42.4948 19.4271 42.3333 19.1562 42.2188C18.8854 42.1042 18.5938 42.0469 18.2812 42.0469H11.5625V46.5156ZM11.5625 37.5625H18.2812C18.5938 37.5625 18.8854 37.5052 19.1562 37.3906C19.4271 37.276 19.6615 37.1198 19.8594 36.9219C20.0677 36.7135 20.2292 36.474 20.3438 36.2031C20.4583 35.9219 20.5156 35.625 20.5156 35.3125C20.5156 35 20.4583 34.7083 20.3438 34.4375C20.2292 34.1667 20.0677 33.9323 19.8594 33.7344C19.6615 33.526 19.4271 33.3646 19.1562 33.25C18.8854 33.1354 18.5938 33.0781 18.2812 33.0781H11.5625V37.5625ZM69.3125 44.2812C69.3125 45.2083 69.1354 46.0781 68.7812 46.8906C68.4271 47.7031 67.9427 48.4167 67.3281 49.0312C66.724 49.6354 66.0156 50.1146 65.2031 50.4688C64.3906 50.8229 63.5208 51 62.5938 51H51.3906V28.5938H62.5938C63.5208 28.5938 64.3906 28.7708 65.2031 29.125C66.0156 29.4792 66.724 29.9635 67.3281 30.5781C67.9427 31.1823 68.4271 31.8906 68.7812 32.7031C69.1354 33.5156 69.3125 34.3854 69.3125 35.3125C69.3125 35.7292 69.2552 36.1562 69.1406 36.5938C69.026 37.0312 68.8646 37.4531 68.6562 37.8594C68.4479 38.2656 68.1979 38.6354 67.9062 38.9688C67.6146 39.3021 67.2917 39.5781 66.9375 39.7969C67.3021 39.9948 67.6302 40.2656 67.9219 40.6094C68.2135 40.9427 68.4635 41.3125 68.6719 41.7188C68.8802 42.125 69.0365 42.5521 69.1406 43C69.2552 43.4375 69.3125 43.8646 69.3125 44.2812ZM55.875 46.5156H62.5938C62.9062 46.5156 63.1979 46.4583 63.4688 46.3438C63.7396 46.2292 63.974 46.0729 64.1719 45.875C64.3802 45.6667 64.5417 45.4271 64.6562 45.1562C64.7708 44.8854 64.8281 44.5938 64.8281 44.2812C64.8281 43.9688 64.7708 43.6771 64.6562 43.4062C64.5417 43.1354 64.3802 42.901 64.1719 42.7031C63.974 42.4948 63.7396 42.3333 63.4688 42.2188C63.1979 42.1042 62.9062 42.0469 62.5938 42.0469H55.875V46.5156ZM55.875 37.5625H62.5938C62.9062 37.5625 63.1979 37.5052 63.4688 37.3906C63.7396 37.276 63.974 37.1198 64.1719 36.9219C64.3802 36.7135 64.5417 36.474 64.6562 36.2031C64.7708 35.9219 64.8281 35.625 64.8281 35.3125C64.8281 35 64.7708 34.7083 64.6562 34.4375C64.5417 34.1667 64.3802 33.9323 64.1719 33.7344C63.974 33.526 63.7396 33.3646 63.4688 33.25C63.1979 33.1354 62.9062 33.0781 62.5938 33.0781H55.875V37.5625Z" fill="#2874F0"/>
<path d="M32.9688 29.7188C32.9688 30.1146 32.8906 30.4844 32.7344 30.8281C32.5885 31.1719 32.3854 31.474 32.125 31.7344C31.8646 31.9844 31.5573 32.1875 31.2031 32.3438C30.8594 32.4896 30.4896 32.5625 30.0938 32.5625C29.6979 32.5625 29.3229 32.4896 28.9688 32.3438C28.625 32.1875 28.3229 31.9844 28.0625 31.7344C27.8125 31.474 27.6094 31.1719 27.4531 30.8281C27.3073 30.4844 27.2344 30.1146 27.2344 29.7188C27.2344 29.3333 27.3073 28.9688 27.4531 28.625C27.6094 28.2708 27.8125 27.9688 28.0625 27.7188C28.3229 27.4583 28.625 27.2552 28.9688 27.1094C29.3229 26.9531 29.6979 26.875 30.0938 26.875C30.4896 26.875 30.8594 26.9531 31.2031 27.1094C31.5573 27.2552 31.8646 27.4583 32.125 27.7188C32.3854 27.9688 32.5885 28.2708 32.7344 28.625C32.8906 28.9688 32.9688 29.3333 32.9688 29.7188ZM32.2344 51H27.9375V34.2656H32.2344V51ZM48.5625 51H34.6094L41.6562 38.5469H34.6094V34.2969H48.5625L41.5156 46.75H48.5625V51ZM88.4531 51H87.4219L85.7656 48.7031C85.3594 49.0677 84.9271 49.4115 84.4688 49.7344C84.0208 50.0469 83.5469 50.3229 83.0469 50.5625C82.5469 50.7917 82.0312 50.974 81.5 51.1094C80.9792 51.2448 80.4479 51.3125 79.9062 51.3125C78.7292 51.3125 77.6198 51.1146 76.5781 50.7188C75.5469 50.3229 74.6406 49.75 73.8594 49C73.0885 48.2396 72.4792 47.3125 72.0312 46.2188C71.5833 45.125 71.3594 43.8802 71.3594 42.4844C71.3594 41.1823 71.5833 39.9896 72.0312 38.9062C72.4792 37.8125 73.0885 36.875 73.8594 36.0938C74.6406 35.3125 75.5469 34.7083 76.5781 34.2812C77.6198 33.8438 78.7292 33.625 79.9062 33.625C80.4479 33.625 80.9844 33.6927 81.5156 33.8281C82.0469 33.9635 82.5625 34.151 83.0625 34.3906C83.5625 34.6302 84.0365 34.9115 84.4844 35.2344C84.9427 35.5573 85.3698 35.9062 85.7656 36.2812L87.4219 34.2969H88.4531V51ZM84.1562 42.4844C84.1562 41.901 84.0417 41.3385 83.8125 40.7969C83.5938 40.2448 83.2917 39.7604 82.9062 39.3438C82.5208 38.9167 82.0677 38.5781 81.5469 38.3281C81.0365 38.0677 80.4896 37.9375 79.9062 37.9375C79.3229 37.9375 78.7708 38.0365 78.25 38.2344C77.7396 38.4323 77.2917 38.724 76.9062 39.1094C76.5312 39.4948 76.2344 39.974 76.0156 40.5469C75.7969 41.1094 75.6875 41.7552 75.6875 42.4844C75.6875 43.2135 75.7969 43.8646 76.0156 44.4375C76.2344 45 76.5312 45.474 76.9062 45.8594C77.2917 46.2448 77.7396 46.5365 78.25 46.7344C78.7708 46.9323 79.3229 47.0312 79.9062 47.0312C80.4896 47.0312 81.0365 46.9062 81.5469 46.6562C82.0677 46.3958 82.5208 46.0573 82.9062 45.6406C83.2917 45.2135 83.5938 44.7292 83.8125 44.1875C84.0417 43.6354 84.1562 43.0677 84.1562 42.4844ZM100.906 51H91.1562V46.75H100.906C101.198 46.75 101.448 46.6458 101.656 46.4375C101.865 46.2292 101.969 45.9792 101.969 45.6875C101.969 45.3854 101.865 45.1875 101.656 45.0938C101.448 45 101.198 44.9531 100.906 44.9531H96.4688C95.7292 44.9531 95.0365 44.8125 94.3906 44.5312C93.7448 44.25 93.1823 43.8698 92.7031 43.3906C92.224 42.901 91.8438 42.3333 91.5625 41.6875C91.2917 41.0417 91.1562 40.349 91.1562 39.6094C91.1562 38.8698 91.2917 38.1771 91.5625 37.5312C91.8438 36.8854 92.224 36.3229 92.7031 35.8438C93.1823 35.3646 93.7448 34.9896 94.3906 34.7188C95.0365 34.4375 95.7292 34.2969 96.4688 34.2969H105.109V38.5469H96.4688C96.1771 38.5469 95.9271 38.651 95.7188 38.8594C95.5104 39.0677 95.4062 39.3177 95.4062 39.6094C95.4062 39.9115 95.5104 40.1719 95.7188 40.3906C95.9271 40.599 96.1771 40.7031 96.4688 40.7031H100.906C101.635 40.7031 102.323 40.8281 102.969 41.0781C103.615 41.3177 104.177 41.6562 104.656 42.0938C105.135 42.5312 105.516 43.0573 105.797 43.6719C106.078 44.2865 106.219 44.9583 106.219 45.6875C106.219 46.4271 106.078 47.1198 105.797 47.7656C105.516 48.401 105.135 48.9635 104.656 49.4531C104.177 49.9323 103.615 50.3125 102.969 50.5938C102.323 50.8646 101.635 51 100.906 51ZM112.797 51H108.5V27.6094H112.797V42.3594L119.156 34.2969H124.062L118.516 41.2656L124.062 51H119.156L115.766 44.9219L112.797 48.8594V51ZM131.875 46.9062C132.042 46.9583 132.208 46.9948 132.375 47.0156C132.542 47.026 132.708 47.0312 132.875 47.0312C133.292 47.0312 133.693 46.974 134.078 46.8594C134.464 46.7448 134.823 46.5833 135.156 46.375C135.5 46.1562 135.802 45.8958 136.062 45.5938C136.333 45.2812 136.552 44.9375 136.719 44.5625L139.844 47.7031C139.448 48.2656 138.99 48.7708 138.469 49.2188C137.958 49.6667 137.401 50.0469 136.797 50.3594C136.203 50.6719 135.573 50.9062 134.906 51.0625C134.25 51.2292 133.573 51.3125 132.875 51.3125C131.698 51.3125 130.589 51.0938 129.547 50.6562C128.516 50.2188 127.609 49.6094 126.828 48.8281C126.057 48.0469 125.448 47.1198 125 46.0469C124.552 44.9635 124.328 43.776 124.328 42.4844C124.328 41.1615 124.552 39.9531 125 38.8594C125.448 37.7656 126.057 36.8333 126.828 36.0625C127.609 35.2917 128.516 34.6927 129.547 34.2656C130.589 33.8385 131.698 33.625 132.875 33.625C133.573 33.625 134.255 33.7083 134.922 33.875C135.589 34.0417 136.219 34.2812 136.812 34.5938C137.417 34.9062 137.979 35.2917 138.5 35.75C139.021 36.1979 139.479 36.7031 139.875 37.2656L131.875 46.9062ZM134.062 38.1094C133.865 38.0365 133.667 37.9896 133.469 37.9688C133.281 37.9479 133.083 37.9375 132.875 37.9375C132.292 37.9375 131.74 38.0469 131.219 38.2656C130.708 38.474 130.26 38.776 129.875 39.1719C129.5 39.5677 129.203 40.0469 128.984 40.6094C128.766 41.1615 128.656 41.7865 128.656 42.4844C128.656 42.6406 128.661 42.8177 128.672 43.0156C128.693 43.2135 128.719 43.4167 128.75 43.625C128.792 43.8229 128.839 44.0156 128.891 44.2031C128.943 44.3906 129.01 44.5573 129.094 44.7031L134.062 38.1094ZM150.422 51C149.391 51 148.422 50.8073 147.516 50.4219C146.609 50.026 145.812 49.4896 145.125 48.8125C144.448 48.125 143.911 47.3281 143.516 46.4219C143.13 45.5156 142.938 44.5469 142.938 43.5156V38.5469H140.859V34.2969H142.938V27.6094H147.188V34.2969H153.656V38.5469H147.188V43.5156C147.188 43.9635 147.271 44.3854 147.438 44.7812C147.604 45.1667 147.833 45.5052 148.125 45.7969C148.417 46.0885 148.76 46.3229 149.156 46.5C149.552 46.6667 149.974 46.75 150.422 46.75H153.656V51H150.422Z" fill="#02368A"/>
<circle cx="29.5" cy="29.5" r="3.5" fill="#02368A"/>
<circle cx="39.5" cy="29.5" r="3.5" fill="#02368A"/>
<defs>
<filter id="filter0_d_294_99" x="22.9651" y="27.1946" width="13.1733" height="13.1733" filterUnits="userSpaceOnUse" color-interpolation-filters="sRGB">
<feFlood flood-opacity="0" result="BackgroundImageFix"/>
<feColorMatrix in="SourceAlpha" type="matrix" values="0 0 0 0 0 0 0 0 0 0 0 0 0 0 0 0 0 0 127 0" result="hardAlpha"/>
<feOffset dy="4"/>
<feGaussianBlur stdDeviation="2"/>
<feComposite in2="hardAlpha" operator="out"/>
<feColorMatrix type="matrix" values="0 0 0 0 0 0 0 0 0 0 0 0 0 0 0 0 0 0 0.25 0"/>
<feBlend mode="normal" in2="BackgroundImageFix" result="effect1_dropShadow_294_99"/>
<feBlend mode="normal" in="SourceGraphic" in2="effect1_dropShadow_294_99" result="shape"/>
</filter>
<filter id="filter1_d_294_99" x="32.5433" y="27.1946" width="13.1733" height="13.1733" filterUnits="userSpaceOnUse" color-interpolation-filters="sRGB">
<feFlood flood-opacity="0" result="BackgroundImageFix"/>
<feColorMatrix in="SourceAlpha" type="matrix" values="0 0 0 0 0 0 0 0 0 0 0 0 0 0 0 0 0 0 127 0" result="hardAlpha"/>
<feOffset dy="4"/>
<feGaussianBlur stdDeviation="2"/>
<feComposite in2="hardAlpha" operator="out"/>
<feColorMatrix type="matrix" values="0 0 0 0 0 0 0 0 0 0 0 0 0 0 0 0 0 0 0.25 0"/>
<feBlend mode="normal" in2="BackgroundImageFix" result="effect1_dropShadow_294_99"/>
<feBlend mode="normal" in="SourceGraphic" in2="effect1_dropShadow_294_99" result="shape"/>
</filter>
</defs>
</svg>
