<svg width="35" height="35" viewBox="0 0 35 35" fill="none" xmlns="http://www.w3.org/2000/svg">
<rect width="35" height="35" rx="8" fill="white"/>
<path d="M27.103 15.998C27.226 16.657 27.293 17.346 27.293 18.065C27.293 23.689 23.529 27.688 17.844 27.688C16.5512 27.6884 15.2709 27.434 14.0764 26.9395C12.8819 26.4449 11.7965 25.7198 10.8824 24.8056C9.96818 23.8915 9.2431 22.8061 8.74853 21.6116C8.25396 20.4171 7.99961 19.1368 8 17.844C7.99961 16.5512 8.25396 15.2709 8.74853 14.0764C9.2431 12.8819 9.96818 11.7965 10.8824 10.8824C11.7965 9.96818 12.8819 9.2431 14.0764 8.74853C15.2709 8.25396 16.5512 7.99961 17.844 8C20.502 8 22.723 8.978 24.427 10.566L21.652 13.341V13.334C20.619 12.35 19.308 11.845 17.844 11.845C14.596 11.845 11.956 14.589 11.956 17.838C11.956 21.086 14.596 23.836 17.844 23.836C20.791 23.836 22.797 22.151 23.209 19.837H17.844V15.998H27.104H27.103Z" fill="#002554"/>
</svg>
