<svg width="35" height="35" viewBox="0 0 35 35" fill="none" xmlns="http://www.w3.org/2000/svg">
<rect width="35" height="35" rx="8" fill="white"/>
<path d="M25.95 13.324C25.9399 12.5666 25.7981 11.8168 25.531 11.108C25.2993 10.5102 24.9455 9.9672 24.4922 9.51383C24.0388 9.06046 23.4958 8.70665 22.898 8.475C22.1983 8.21236 21.4592 8.07034 20.712 8.055C19.75 8.012 19.445 8 17.003 8C14.561 8 14.248 8 13.293 8.055C12.5462 8.07045 11.8073 8.21247 11.108 8.475C10.5101 8.70649 9.96702 9.06024 9.51363 9.51363C9.06024 9.96702 8.70649 10.5101 8.475 11.108C8.21183 11.8071 8.07012 12.5461 8.056 13.293C8.013 14.256 8 14.561 8 17.003C8 19.445 8 19.757 8.056 20.713C8.071 21.461 8.212 22.199 8.475 22.9C8.70688 23.4978 9.0609 24.0406 9.51444 24.4938C9.96798 24.947 10.5111 25.3006 11.109 25.532C11.8064 25.8052 12.5454 25.9574 13.294 25.982C14.257 26.025 14.562 26.038 17.004 26.038C19.446 26.038 19.759 26.038 20.714 25.982C21.4612 25.9673 22.2004 25.8256 22.9 25.563C23.4977 25.3311 24.0405 24.9772 24.4938 24.5238C24.9472 24.0705 25.3011 23.5277 25.533 22.93C25.796 22.23 25.937 21.492 25.952 20.743C25.995 19.781 26.008 19.476 26.008 17.033C26.006 14.591 26.006 14.281 25.95 13.324ZM16.997 21.621C14.443 21.621 12.374 19.552 12.374 16.998C12.374 14.444 14.443 12.375 16.997 12.375C18.2231 12.375 19.399 12.8621 20.266 13.729C21.1329 14.596 21.62 15.7719 21.62 16.998C21.62 18.2241 21.1329 19.4 20.266 20.267C19.399 21.1339 18.2231 21.621 16.997 21.621ZM21.804 13.282C21.6624 13.2821 21.5222 13.2543 21.3913 13.2002C21.2605 13.1461 21.1416 13.0667 21.0414 12.9666C20.9413 12.8664 20.8619 12.7475 20.8078 12.6167C20.7537 12.4858 20.7259 12.3456 20.726 12.204C20.726 12.0625 20.7539 11.9224 20.808 11.7917C20.8622 11.6609 20.9415 11.5421 21.0416 11.4421C21.1416 11.342 21.2604 11.2627 21.3912 11.2085C21.5219 11.1544 21.662 11.1265 21.8035 11.1265C21.945 11.1265 22.0851 11.1544 22.2158 11.2085C22.3466 11.2627 22.4654 11.342 22.5654 11.4421C22.6655 11.5421 22.7448 11.6609 22.799 11.7917C22.8531 11.9224 22.881 12.0625 22.881 12.204C22.881 12.8 22.399 13.282 21.804 13.282Z" fill="#002554"/>
<path d="M16.9971 20.0011C18.6557 20.0011 20.0001 18.6566 20.0001 16.9981C20.0001 15.3396 18.6557 13.9951 16.9971 13.9951C15.3386 13.9951 13.9941 15.3396 13.9941 16.9981C13.9941 18.6566 15.3386 20.0011 16.9971 20.0011Z" fill="#002554"/>
</svg>
