<svg width="193" height="64" viewBox="0 0 193 64" fill="none" xmlns="http://www.w3.org/2000/svg">
<g filter="url(#filter0_d_299_281)">
<path d="M40.2428 37.0389C40.2428 35.2499 38.7926 33.7998 37.004 33.7998C35.215 33.7998 33.7649 35.2499 33.7649 37.0386C33.7649 38.8275 35.215 40.2777 37.004 40.2777C38.7917 40.2758 40.2409 38.8269 40.2428 37.0389ZM34.9137 37.0389C34.9137 35.8843 35.8494 34.9486 37.004 34.9486C38.1583 34.9486 39.0939 35.8843 39.0939 37.0386C39.0939 38.1932 38.1583 39.1289 37.004 39.1289C35.85 39.1276 34.915 38.1925 34.9137 37.0389Z" fill="#093E94"/>
</g>
<g filter="url(#filter1_d_299_281)">
<path d="M48.9973 40.2777C50.7863 40.278 52.2364 38.8279 52.2364 37.0389C52.2367 35.2499 50.7866 33.7998 48.9976 33.7998C47.2087 33.7998 45.7585 35.2499 45.7585 37.0389C45.7608 38.8266 47.2093 40.2754 48.9973 40.2777ZM48.9973 34.9486C50.1516 34.9486 51.0876 35.8843 51.0876 37.0386C51.0879 38.1929 50.1519 39.1289 48.9976 39.1289C47.8434 39.1289 46.9074 38.1932 46.9074 37.0389C46.9087 35.8853 47.8437 34.9502 48.9973 34.9486Z" fill="#093E94"/>
</g>
<path d="M21.9432 2.34171H25.9467C27.2641 2.33647 28.3874 3.31689 28.5882 4.64808L31.7574 25.1098C32.0566 27.0938 33.7311 28.5557 35.6953 28.5478L55.2848 28.5478C55.6471 28.5478 55.9412 28.2472 55.9412 27.877C55.9412 27.5063 55.6471 27.2061 55.2848 27.2061L35.6953 27.2061C34.3779 27.2114 33.2546 26.2306 33.0539 24.8997L32.5151 21.4209L52.5782 21.4209C54.2769 21.4201 55.7888 20.3203 56.3455 18.6803L60.0678 7.6998C60.1377 7.49465 60.1059 7.2678 59.9828 7.09073C59.8594 6.91403 59.6601 6.80884 59.4477 6.80884L30.2517 6.80884L29.8847 4.43807C29.5855 2.45401 27.911 0.99217 25.9467 1.00003L21.9432 1.00003C21.5806 1.00003 21.2869 1.30064 21.2869 1.67087C21.2869 2.04148 21.5806 2.34171 21.9432 2.34171ZM58.5255 8.15089L55.1054 18.2408C54.7318 19.341 53.7176 20.0788 52.5782 20.0792L32.3071 20.0792L30.4594 8.15052L58.5255 8.15089Z" fill="#EFEFEF" stroke="#E5E5E5"/>
<line x1="8.74228e-08" y1="10.498" x2="16.6658" y2="10.498" stroke="#FC9231" stroke-width="2"/>
<line x1="13.4607" y1="23.0195" x2="21.7936" y2="23.0195" stroke="#FC9231" stroke-width="2"/>
<line x1="8.97388" y1="16.7588" x2="19.2298" y2="16.7588" stroke="#FC9231" stroke-width="2"/>
<path d="M31.3043 55.1956C31.3043 56.3564 31.0826 57.4456 30.6391 58.4629C30.1956 59.4803 29.5891 60.3738 28.8196 61.1434C28.063 61.8999 27.1761 62.4999 26.1587 62.9434C25.1413 63.3869 24.0522 63.6086 22.8913 63.6086H8.86304V35.5521H22.8913C24.0522 35.5521 25.1413 35.7738 26.1587 36.2173C27.1761 36.6608 28.063 37.2673 28.8196 38.0369C29.5891 38.7934 30.1956 39.6803 30.6391 40.6977C31.0826 41.7151 31.3043 42.8042 31.3043 43.9651C31.3043 44.4869 31.2326 45.0216 31.0891 45.5695C30.9456 46.1173 30.7435 46.6456 30.4826 47.1543C30.2217 47.6629 29.9087 48.126 29.5435 48.5434C29.1783 48.9608 28.7739 49.3064 28.3304 49.5803C28.7869 49.8282 29.1978 50.1673 29.563 50.5977C29.9283 51.0151 30.2413 51.4782 30.5022 51.9869C30.763 52.4956 30.9587 53.0303 31.0891 53.5912C31.2326 54.139 31.3043 54.6738 31.3043 55.1956ZM14.4783 57.9934H22.8913C23.2826 57.9934 23.6478 57.9216 23.9869 57.7782C24.3261 57.6347 24.6196 57.439 24.8674 57.1912C25.1283 56.9303 25.3304 56.6303 25.4739 56.2912C25.6174 55.9521 25.6891 55.5869 25.6891 55.1956C25.6891 54.8043 25.6174 54.439 25.4739 54.0999C25.3304 53.7608 25.1283 53.4673 24.8674 53.2195C24.6196 52.9586 24.3261 52.7564 23.9869 52.6129C23.6478 52.4695 23.2826 52.3977 22.8913 52.3977H14.4783V57.9934ZM14.4783 46.7825H22.8913C23.2826 46.7825 23.6478 46.7108 23.9869 46.5673C24.3261 46.4238 24.6196 46.2282 24.8674 45.9803C25.1283 45.7195 25.3304 45.4195 25.4739 45.0803C25.6174 44.7282 25.6891 44.3564 25.6891 43.9651C25.6891 43.5738 25.6174 43.2086 25.4739 42.8695C25.3304 42.5303 25.1283 42.2369 24.8674 41.989C24.6196 41.7282 24.3261 41.526 23.9869 41.3825C23.6478 41.239 23.2826 41.1673 22.8913 41.1673H14.4783V46.7825Z" fill="#F0F0F0"/>
<path d="M41.2826 36.9608C41.2826 37.4564 41.1848 37.9195 40.9891 38.3499C40.8065 38.7803 40.5522 39.1586 40.2261 39.4847C39.9 39.7977 39.5152 40.0521 39.0717 40.2477C38.6413 40.4303 38.1783 40.5216 37.6826 40.5216C37.187 40.5216 36.7174 40.4303 36.2739 40.2477C35.8435 40.0521 35.4652 39.7977 35.1391 39.4847C34.8261 39.1586 34.5717 38.7803 34.3761 38.3499C34.1935 37.9195 34.1022 37.4564 34.1022 36.9608C34.1022 36.4782 34.1935 36.0216 34.3761 35.5912C34.5717 35.1477 34.8261 34.7695 35.1391 34.4564C35.4652 34.1303 35.8435 33.876 36.2739 33.6934C36.7174 33.4977 37.187 33.3999 37.6826 33.3999C38.1783 33.3999 38.6413 33.4977 39.0717 33.6934C39.5152 33.876 39.9 34.1303 40.2261 34.4564C40.5522 34.7695 40.8065 35.1477 40.9891 35.5912C41.1848 36.0216 41.2826 36.4782 41.2826 36.9608ZM40.363 63.6086H34.9826V42.6543H40.363V63.6086Z" fill="#F0F0F0"/>
<path d="M60.8087 63.6086H43.3369L52.1609 48.0151H43.3369V42.6934H60.8087L51.9848 58.2869H60.8087V63.6086Z" fill="#F0F0F0"/>
<path d="M86.7913 55.1956C86.7913 56.3564 86.5696 57.4456 86.1261 58.4629C85.6826 59.4803 85.0761 60.3738 84.3065 61.1434C83.55 61.8999 82.663 62.4999 81.6456 62.9434C80.6283 63.3869 79.5391 63.6086 78.3783 63.6086H64.35V35.5521H78.3783C79.5391 35.5521 80.6283 35.7738 81.6456 36.2173C82.663 36.6608 83.55 37.2673 84.3065 38.0369C85.0761 38.7934 85.6826 39.6803 86.1261 40.6977C86.5696 41.7151 86.7913 42.8042 86.7913 43.9651C86.7913 44.4869 86.7196 45.0216 86.5761 45.5695C86.4326 46.1173 86.2304 46.6456 85.9696 47.1543C85.7087 47.6629 85.3956 48.126 85.0304 48.5434C84.6652 48.9608 84.2609 49.3064 83.8174 49.5803C84.2739 49.8282 84.6848 50.1673 85.05 50.5977C85.4152 51.0151 85.7283 51.4782 85.9891 51.9869C86.25 52.4956 86.4456 53.0303 86.5761 53.5912C86.7196 54.139 86.7913 54.6738 86.7913 55.1956ZM69.9652 57.9934H78.3783C78.7696 57.9934 79.1348 57.9216 79.4739 57.7782C79.813 57.6347 80.1065 57.439 80.3543 57.1912C80.6152 56.9303 80.8174 56.6303 80.9609 56.2912C81.1043 55.9521 81.1761 55.5869 81.1761 55.1956C81.1761 54.8043 81.1043 54.439 80.9609 54.0999C80.8174 53.7608 80.6152 53.4673 80.3543 53.2195C80.1065 52.9586 79.813 52.7564 79.4739 52.6129C79.1348 52.4695 78.7696 52.3977 78.3783 52.3977H69.9652V57.9934ZM69.9652 46.7825H78.3783C78.7696 46.7825 79.1348 46.7108 79.4739 46.5673C79.813 46.4238 80.1065 46.2282 80.3543 45.9803C80.6152 45.7195 80.8174 45.4195 80.9609 45.0803C81.1043 44.7282 81.1761 44.3564 81.1761 43.9651C81.1761 43.5738 81.1043 43.2086 80.9609 42.8695C80.8174 42.5303 80.6152 42.2369 80.3543 41.989C80.1065 41.7282 79.813 41.526 79.4739 41.3825C79.1348 41.239 78.7696 41.1673 78.3783 41.1673H69.9652V46.7825Z" fill="#F0F0F0"/>
<path d="M110.759 63.6086H109.467L107.393 60.7325C106.885 61.189 106.343 61.6195 105.77 62.0238C105.209 62.4151 104.615 62.7608 103.989 63.0608C103.363 63.3477 102.717 63.576 102.052 63.7456C101.4 63.9151 100.735 63.9999 100.057 63.9999C98.5826 63.9999 97.1935 63.7521 95.8891 63.2564C94.5978 62.7608 93.463 62.0434 92.4848 61.1042C91.5196 60.1521 90.7565 58.9912 90.1956 57.6216C89.6348 56.2521 89.3543 54.6934 89.3543 52.9456C89.3543 51.3151 89.6348 49.8216 90.1956 48.4651C90.7565 47.0956 91.5196 45.9216 92.4848 44.9434C93.463 43.9651 94.5978 43.2086 95.8891 42.6738C97.1935 42.126 98.5826 41.8521 100.057 41.8521C100.735 41.8521 101.407 41.9369 102.072 42.1064C102.737 42.276 103.383 42.5108 104.009 42.8108C104.635 43.1108 105.228 43.4629 105.789 43.8673C106.363 44.2716 106.898 44.7086 107.393 45.1782L109.467 42.6934H110.759V63.6086ZM105.378 52.9456C105.378 52.2151 105.235 51.5108 104.948 50.8325C104.674 50.1412 104.296 49.5347 103.813 49.0129C103.33 48.4782 102.763 48.0542 102.111 47.7412C101.472 47.4151 100.787 47.2521 100.057 47.2521C99.3261 47.2521 98.6348 47.376 97.9826 47.6238C97.3435 47.8716 96.7826 48.2369 96.3 48.7195C95.8304 49.2021 95.4587 49.8021 95.1848 50.5195C94.9109 51.2238 94.7739 52.0325 94.7739 52.9456C94.7739 53.8586 94.9109 54.6738 95.1848 55.3912C95.4587 56.0956 95.8304 56.689 96.3 57.1716C96.7826 57.6542 97.3435 58.0195 97.9826 58.2673C98.6348 58.5151 99.3261 58.639 100.057 58.639C100.787 58.639 101.472 58.4825 102.111 58.1695C102.763 57.8434 103.33 57.4195 103.813 56.8977C104.296 56.3629 104.674 55.7564 104.948 55.0782C105.235 54.3869 105.378 53.676 105.378 52.9456Z" fill="#F0F0F0"/>
<path d="M126.352 63.6086H114.143V58.2869H126.352C126.717 58.2869 127.03 58.1564 127.291 57.8956C127.552 57.6347 127.683 57.3216 127.683 56.9564C127.683 56.5782 127.552 56.3303 127.291 56.2129C127.03 56.0956 126.717 56.0369 126.352 56.0369H120.796C119.87 56.0369 119.002 55.8608 118.193 55.5086C117.385 55.1564 116.68 54.6803 116.08 54.0803C115.48 53.4673 115.004 52.7564 114.652 51.9477C114.313 51.139 114.143 50.2716 114.143 49.3456C114.143 48.4195 114.313 47.5521 114.652 46.7434C115.004 45.9347 115.48 45.2303 116.08 44.6303C116.68 44.0303 117.385 43.5608 118.193 43.2216C119.002 42.8695 119.87 42.6934 120.796 42.6934H131.615V48.0151H120.796C120.43 48.0151 120.117 48.1456 119.857 48.4064C119.596 48.6673 119.465 48.9803 119.465 49.3456C119.465 49.7238 119.596 50.0499 119.857 50.3238C120.117 50.5847 120.43 50.7151 120.796 50.7151H126.352C127.265 50.7151 128.126 50.8716 128.935 51.1847C129.743 51.4847 130.448 51.9086 131.048 52.4564C131.648 53.0042 132.124 53.6629 132.476 54.4325C132.828 55.2021 133.004 56.0434 133.004 56.9564C133.004 57.8825 132.828 58.7499 132.476 59.5586C132.124 60.3542 131.648 61.0586 131.048 61.6716C130.448 62.2716 129.743 62.7477 128.935 63.0999C128.126 63.439 127.265 63.6086 126.352 63.6086Z" fill="#F0F0F0"/>
<path d="M141.241 63.6086H135.861V34.3195H141.241V52.789L149.204 42.6934H155.348L148.402 51.4195L155.348 63.6086H149.204L144.959 55.9977L141.241 60.9282V63.6086Z" fill="#F0F0F0"/>
<path d="M165.13 58.4825C165.339 58.5477 165.548 58.5934 165.757 58.6195C165.965 58.6325 166.174 58.639 166.383 58.639C166.904 58.639 167.407 58.5673 167.889 58.4238C168.372 58.2803 168.822 58.0782 169.239 57.8173C169.67 57.5434 170.048 57.2173 170.374 56.839C170.713 56.4477 170.987 56.0173 171.196 55.5477L175.109 59.4803C174.613 60.1847 174.039 60.8173 173.387 61.3782C172.748 61.939 172.05 62.4151 171.293 62.8064C170.55 63.1977 169.761 63.4912 168.926 63.6869C168.104 63.8956 167.257 63.9999 166.383 63.9999C164.909 63.9999 163.52 63.726 162.215 63.1782C160.924 62.6303 159.789 61.8673 158.811 60.889C157.846 59.9108 157.083 58.7499 156.522 57.4064C155.961 56.0499 155.68 54.5629 155.68 52.9456C155.68 51.289 155.961 49.776 156.522 48.4064C157.083 47.0369 157.846 45.8695 158.811 44.9043C159.789 43.939 160.924 43.189 162.215 42.6543C163.52 42.1195 164.909 41.8521 166.383 41.8521C167.257 41.8521 168.111 41.9564 168.946 42.1651C169.78 42.3738 170.57 42.6738 171.313 43.0651C172.07 43.4564 172.774 43.939 173.426 44.5129C174.078 45.0738 174.652 45.7064 175.148 46.4108L165.13 58.4825ZM167.87 47.4673C167.622 47.376 167.374 47.3173 167.126 47.2912C166.891 47.2651 166.643 47.2521 166.383 47.2521C165.652 47.2521 164.961 47.389 164.309 47.6629C163.67 47.9238 163.109 48.3021 162.626 48.7977C162.157 49.2934 161.785 49.8934 161.511 50.5977C161.237 51.289 161.1 52.0716 161.1 52.9456C161.1 53.1412 161.107 53.3629 161.12 53.6108C161.146 53.8586 161.178 54.1129 161.217 54.3738C161.27 54.6216 161.328 54.8629 161.393 55.0977C161.459 55.3325 161.543 55.5412 161.648 55.7238L167.87 47.4673Z" fill="#F0F0F0"/>
<path d="M188.354 63.6086C187.063 63.6086 185.85 63.3673 184.715 62.8847C183.58 62.389 182.583 61.7173 181.722 60.8695C180.874 60.0086 180.202 59.0108 179.707 57.876C179.224 56.7412 178.983 55.5282 178.983 54.2369V48.0151H176.38V42.6934H178.983V34.3195H184.304V42.6934H192.404V48.0151H184.304V54.2369C184.304 54.7977 184.409 55.326 184.617 55.8216C184.826 56.3043 185.113 56.7282 185.478 57.0934C185.843 57.4586 186.274 57.7521 186.77 57.9738C187.265 58.1825 187.793 58.2869 188.354 58.2869H192.404V63.6086H188.354Z" fill="#F0F0F0"/>
<circle cx="36.9393" cy="36.6868" r="4.38261" fill="#EFEFEF"/>
<circle cx="49.461" cy="36.6868" r="4.38261" fill="#DDDDDD"/>
<defs>
<filter id="filter0_d_299_281" x="29.7649" y="33.7998" width="14.4778" height="14.478" filterUnits="userSpaceOnUse" color-interpolation-filters="sRGB">
<feFlood flood-opacity="0" result="BackgroundImageFix"/>
<feColorMatrix in="SourceAlpha" type="matrix" values="0 0 0 0 0 0 0 0 0 0 0 0 0 0 0 0 0 0 127 0" result="hardAlpha"/>
<feOffset dy="4"/>
<feGaussianBlur stdDeviation="2"/>
<feComposite in2="hardAlpha" operator="out"/>
<feColorMatrix type="matrix" values="0 0 0 0 0 0 0 0 0 0 0 0 0 0 0 0 0 0 0.25 0"/>
<feBlend mode="normal" in2="BackgroundImageFix" result="effect1_dropShadow_299_281"/>
<feBlend mode="normal" in="SourceGraphic" in2="effect1_dropShadow_299_281" result="shape"/>
</filter>
<filter id="filter1_d_299_281" x="41.7585" y="33.7998" width="14.4778" height="14.478" filterUnits="userSpaceOnUse" color-interpolation-filters="sRGB">
<feFlood flood-opacity="0" result="BackgroundImageFix"/>
<feColorMatrix in="SourceAlpha" type="matrix" values="0 0 0 0 0 0 0 0 0 0 0 0 0 0 0 0 0 0 127 0" result="hardAlpha"/>
<feOffset dy="4"/>
<feGaussianBlur stdDeviation="2"/>
<feComposite in2="hardAlpha" operator="out"/>
<feColorMatrix type="matrix" values="0 0 0 0 0 0 0 0 0 0 0 0 0 0 0 0 0 0 0.25 0"/>
<feBlend mode="normal" in2="BackgroundImageFix" result="effect1_dropShadow_299_281"/>
<feBlend mode="normal" in="SourceGraphic" in2="effect1_dropShadow_299_281" result="shape"/>
</filter>
</defs>
</svg>
